<?xml version="1.0" encoding="iso-8859-1"?>
<!-- Generator: Adobe Illustrator 17.1.0, SVG Export Plug-In . SVG Version: 6.00 Build 0)  -->
<!DOCTYPE svg PUBLIC "-//W3C//DTD SVG 1.1//EN" "http://www.w3.org/Graphics/SVG/1.1/DTD/svg11.dtd">
<svg version="1.1" id="Capa_1" xmlns="http://www.w3.org/2000/svg" xmlns:xlink="http://www.w3.org/1999/xlink" x="0px" y="0px"
	 viewBox="0 0 295.008 295.008" style="enable-background:new 0 0 295.008 295.008;" xml:space="preserve" fill="currentColor">
<path d="M285.582,166.935l-25.237-10.11c0.423-3.132,0.658-6.218,0.658-9.216c0-2.892-0.223-5.867-0.617-8.884l25.123-9.913
	c7.706-3.041,11.488-11.753,8.447-19.459c-3.041-7.705-11.752-11.484-19.459-8.447l-23.039,9.091
	c-3.044-6.236-6.738-12.303-11.023-17.944c-14.314-18.845-32.466-29.653-49.799-29.653c-7.946,0-15.474,2.18-22.373,6.479
	c-0.61,0.38-1.192,0.804-1.742,1.268l-19.018,16.052l-19.018-16.052c-0.549-0.464-1.132-0.888-1.742-1.268
	c-6.899-4.3-14.427-6.479-22.373-6.479c-17.335,0-35.485,10.808-49.8,29.652c-4.216,5.55-7.862,11.512-10.878,17.642l-23.111-9.258
	c-7.693-3.084-16.422,0.655-19.502,8.346c-3.081,7.69,0.655,16.422,8.346,19.502l25.236,10.11c-0.423,3.132-0.658,6.218-0.658,9.216
	c0,2.892,0.223,5.867,0.617,8.884l-25.123,9.913c-7.706,3.041-11.488,11.753-8.447,19.459c2.328,5.898,7.979,9.498,13.957,9.498
	c1.832,0,3.694-0.338,5.502-1.051l23.039-9.091c3.044,6.236,6.739,12.198,11.023,17.838c14.314,18.845,32.465,29.549,49.798,29.549
	c0.001,0,0.002,0,0.003,0c7.944,0,15.472-2.075,22.371-6.375c0.61-0.38,1.193-0.751,1.742-1.215l19.018-16.026l19.018,16.066
	c0.55,0.464,1.132,0.789,1.742,1.169c6.897,4.298,14.424,6.381,22.371,6.381c0.002,0,0.004,0,0.006,0
	c17.333,0,35.482-10.703,49.795-29.546c4.216-5.55,7.863-11.46,10.878-17.591l23.111,9.285c1.829,0.733,3.717,1.093,5.573,1.093
	c5.95,0,11.581-3.558,13.929-9.419C297.009,178.74,293.273,170.015,285.582,166.935z M184.905,93.889
	c1.847-1.001,3.73-1.489,5.733-1.489c7.642,0,17.569,6.82,25.908,17.8c2.613,3.44,4.926,7.105,6.904,10.849l-23.618,9.319
	l-29.073-24.54L184.905,93.889z M173.749,147.609l-26.245,22.152l-26.245-22.152l26.245-22.152L173.749,147.609z M78.461,110.198
	c8.339-10.979,18.268-17.799,25.91-17.799c2.003,0,3.887,0.488,5.733,1.489l14.145,11.939l-29.034,24.506l-23.574-9.444
	C73.602,117.2,75.885,113.59,78.461,110.198z M110.105,201.33c-1.847,1.001-3.729,1.489-5.731,1.489c-0.001,0-0.001,0-0.001,0
	c-7.643-0.001-17.57-6.821-25.91-17.801c-2.613-3.439-4.926-7.104-6.904-10.849l23.618-9.319l29.074,24.54L110.105,201.33z
	 M216.547,184.917c-8.338,10.978-18.264,17.692-25.905,17.692c0,0-0.001,0-0.002,0c-2.004,0-3.889-0.384-5.735-1.384l-14.145-11.887
	l29.033-24.48l23.574,9.405C221.407,177.953,219.123,181.525,216.547,184.917z"/>
<g>
</g>
<g>
</g>
<g>
</g>
<g>
</g>
<g>
</g>
<g>
</g>
<g>
</g>
<g>
</g>
<g>
</g>
<g>
</g>
<g>
</g>
<g>
</g>
<g>
</g>
<g>
</g>
<g>
</g>
</svg>
